<mxfile host="app.diagrams.net" modified="2023-12-09T08:01:49.207Z" agent="Mozilla/5.0 (Windows NT 10.0; Win64; x64) AppleWebKit/537.36 (KHTML, like Gecko) Chrome/119.0.0.0 Safari/537.36 Edg/119.0.0.0" etag="H66dqa0SeM9R3szmNxPT" version="22.1.7" type="github">
  <diagram name="Page-1" id="74e2e168-ea6b-b213-b513-2b3c1d86103e">
    <mxGraphModel dx="674" dy="1521" grid="0" gridSize="10" guides="1" tooltips="1" connect="1" arrows="1" fold="1" page="1" pageScale="1" pageWidth="1100" pageHeight="850" background="none" math="0" shadow="0">
      <root>
        <mxCell id="0" />
        <mxCell id="1" parent="0" />
        <mxCell id="gNcCsbQKsaVJ5BiIyDdV-1" value="管理员" style="shape=umlActor;verticalLabelPosition=bottom;verticalAlign=top;html=1;outlineConnect=0;" parent="1" vertex="1">
          <mxGeometry x="140" y="280" width="30" height="60" as="geometry" />
        </mxCell>
        <mxCell id="gNcCsbQKsaVJ5BiIyDdV-2" value="审核员" style="shape=umlActor;verticalLabelPosition=bottom;verticalAlign=top;html=1;outlineConnect=0;" parent="1" vertex="1">
          <mxGeometry x="140" y="770" width="30" height="60" as="geometry" />
        </mxCell>
        <mxCell id="gNcCsbQKsaVJ5BiIyDdV-3" value="用户" style="shape=umlActor;verticalLabelPosition=bottom;verticalAlign=top;html=1;outlineConnect=0;" parent="1" vertex="1">
          <mxGeometry x="940" y="270" width="30" height="60" as="geometry" />
        </mxCell>
        <mxCell id="gNcCsbQKsaVJ5BiIyDdV-4" value="采购员" style="shape=umlActor;verticalLabelPosition=bottom;verticalAlign=top;html=1;outlineConnect=0;" parent="1" vertex="1">
          <mxGeometry x="940" y="770" width="30" height="60" as="geometry" />
        </mxCell>
        <mxCell id="gNcCsbQKsaVJ5BiIyDdV-9" value="用例图" style="shape=mxgraph.ibm.box;prType=classic;fontStyle=0;verticalAlign=top;align=left;spacingLeft=32;spacingTop=4;fillColor=none;rounded=0;whiteSpace=wrap;html=1;strokeColor=#4376BB;strokeWidth=2;dashed=0;container=1;spacing=-4;collapsible=0;expand=0;recursiveResize=0;" parent="1" vertex="1">
          <mxGeometry x="260" width="580" height="1020" as="geometry" />
        </mxCell>
        <mxCell id="gNcCsbQKsaVJ5BiIyDdV-13" value="登记流浪猫信息" style="ellipse;whiteSpace=wrap;html=1;" parent="gNcCsbQKsaVJ5BiIyDdV-9" vertex="1">
          <mxGeometry x="110" y="20" width="120" height="80" as="geometry" />
        </mxCell>
        <mxCell id="gNcCsbQKsaVJ5BiIyDdV-14" value="发布流浪猫信息" style="ellipse;whiteSpace=wrap;html=1;" parent="gNcCsbQKsaVJ5BiIyDdV-9" vertex="1">
          <mxGeometry x="110" y="110" width="120" height="80" as="geometry" />
        </mxCell>
        <mxCell id="gNcCsbQKsaVJ5BiIyDdV-18" value="发布领养者信息" style="ellipse;whiteSpace=wrap;html=1;" parent="gNcCsbQKsaVJ5BiIyDdV-9" vertex="1">
          <mxGeometry x="110" y="200" width="120" height="80" as="geometry" />
        </mxCell>
        <mxCell id="gNcCsbQKsaVJ5BiIyDdV-19" value="发布商品信息" style="ellipse;whiteSpace=wrap;html=1;" parent="gNcCsbQKsaVJ5BiIyDdV-9" vertex="1">
          <mxGeometry x="110" y="290" width="120" height="80" as="geometry" />
        </mxCell>
        <mxCell id="gNcCsbQKsaVJ5BiIyDdV-20" value="整合订单信息" style="ellipse;whiteSpace=wrap;html=1;" parent="gNcCsbQKsaVJ5BiIyDdV-9" vertex="1">
          <mxGeometry x="110" y="380" width="120" height="80" as="geometry" />
        </mxCell>
        <mxCell id="gNcCsbQKsaVJ5BiIyDdV-21" value="填写采购清单&amp;nbsp;" style="ellipse;whiteSpace=wrap;html=1;" parent="gNcCsbQKsaVJ5BiIyDdV-9" vertex="1">
          <mxGeometry x="110" y="470" width="120" height="80" as="geometry" />
        </mxCell>
        <mxCell id="gNcCsbQKsaVJ5BiIyDdV-34" value="审核用户发布信息" style="ellipse;whiteSpace=wrap;html=1;" parent="gNcCsbQKsaVJ5BiIyDdV-9" vertex="1">
          <mxGeometry x="110" y="660" width="120" height="80" as="geometry" />
        </mxCell>
        <mxCell id="gNcCsbQKsaVJ5BiIyDdV-37" value="审核流浪猫信息" style="ellipse;whiteSpace=wrap;html=1;" parent="gNcCsbQKsaVJ5BiIyDdV-9" vertex="1">
          <mxGeometry x="110" y="750" width="120" height="80" as="geometry" />
        </mxCell>
        <mxCell id="gNcCsbQKsaVJ5BiIyDdV-38" value="审核领养人信息" style="ellipse;whiteSpace=wrap;html=1;" parent="gNcCsbQKsaVJ5BiIyDdV-9" vertex="1">
          <mxGeometry x="110" y="840" width="120" height="80" as="geometry" />
        </mxCell>
        <mxCell id="gNcCsbQKsaVJ5BiIyDdV-42" value="登录、注册" style="ellipse;whiteSpace=wrap;html=1;" parent="gNcCsbQKsaVJ5BiIyDdV-9" vertex="1">
          <mxGeometry x="350" y="20" width="120" height="80" as="geometry" />
        </mxCell>
        <mxCell id="gNcCsbQKsaVJ5BiIyDdV-43" value="交流、分享信息" style="ellipse;whiteSpace=wrap;html=1;" parent="gNcCsbQKsaVJ5BiIyDdV-9" vertex="1">
          <mxGeometry x="350" y="110" width="120" height="80" as="geometry" />
        </mxCell>
        <mxCell id="gNcCsbQKsaVJ5BiIyDdV-44" value="提交流浪猫信息" style="ellipse;whiteSpace=wrap;html=1;" parent="gNcCsbQKsaVJ5BiIyDdV-9" vertex="1">
          <mxGeometry x="350" y="200" width="120" height="80" as="geometry" />
        </mxCell>
        <mxCell id="gNcCsbQKsaVJ5BiIyDdV-45" value="申请领养" style="ellipse;whiteSpace=wrap;html=1;" parent="gNcCsbQKsaVJ5BiIyDdV-9" vertex="1">
          <mxGeometry x="350" y="290" width="120" height="80" as="geometry" />
        </mxCell>
        <mxCell id="gNcCsbQKsaVJ5BiIyDdV-47" value="购买商品" style="ellipse;whiteSpace=wrap;html=1;" parent="gNcCsbQKsaVJ5BiIyDdV-9" vertex="1">
          <mxGeometry x="350" y="380" width="120" height="80" as="geometry" />
        </mxCell>
        <mxCell id="gNcCsbQKsaVJ5BiIyDdV-57" value="采购、团购商品" style="ellipse;whiteSpace=wrap;html=1;" parent="gNcCsbQKsaVJ5BiIyDdV-9" vertex="1">
          <mxGeometry x="350" y="660" width="120" height="80" as="geometry" />
        </mxCell>
        <mxCell id="gNcCsbQKsaVJ5BiIyDdV-58" value="更新到货商品清单" style="ellipse;whiteSpace=wrap;html=1;" parent="gNcCsbQKsaVJ5BiIyDdV-9" vertex="1">
          <mxGeometry x="350" y="750" width="120" height="80" as="geometry" />
        </mxCell>
        <mxCell id="gNcCsbQKsaVJ5BiIyDdV-59" value="质量检测" style="ellipse;whiteSpace=wrap;html=1;" parent="gNcCsbQKsaVJ5BiIyDdV-9" vertex="1">
          <mxGeometry x="350" y="840" width="120" height="80" as="geometry" />
        </mxCell>
        <mxCell id="gNcCsbQKsaVJ5BiIyDdV-60" value="商品入库" style="ellipse;whiteSpace=wrap;html=1;" parent="gNcCsbQKsaVJ5BiIyDdV-9" vertex="1">
          <mxGeometry x="350" y="930" width="120" height="80" as="geometry" />
        </mxCell>
        <mxCell id="XzpkJVxkmOIdcj5frzw8-1" value="商品分发" style="ellipse;whiteSpace=wrap;html=1;" vertex="1" parent="gNcCsbQKsaVJ5BiIyDdV-9">
          <mxGeometry x="350" y="570" width="120" height="80" as="geometry" />
        </mxCell>
        <mxCell id="XzpkJVxkmOIdcj5frzw8-2" value="更新库存商品清单" style="ellipse;whiteSpace=wrap;html=1;" vertex="1" parent="gNcCsbQKsaVJ5BiIyDdV-9">
          <mxGeometry x="350" y="480" width="120" height="80" as="geometry" />
        </mxCell>
        <mxCell id="gNcCsbQKsaVJ5BiIyDdV-24" value="" style="endArrow=classic;html=1;rounded=0;exitX=1;exitY=0.3333333333333333;exitDx=0;exitDy=0;exitPerimeter=0;entryX=0;entryY=0.5;entryDx=0;entryDy=0;" parent="1" source="gNcCsbQKsaVJ5BiIyDdV-1" target="gNcCsbQKsaVJ5BiIyDdV-13" edge="1">
          <mxGeometry width="50" height="50" relative="1" as="geometry">
            <mxPoint x="600" y="570" as="sourcePoint" />
            <mxPoint x="610" y="500" as="targetPoint" />
          </mxGeometry>
        </mxCell>
        <mxCell id="gNcCsbQKsaVJ5BiIyDdV-25" value="" style="endArrow=classic;html=1;rounded=0;exitX=1;exitY=0.3333333333333333;exitDx=0;exitDy=0;exitPerimeter=0;entryX=0;entryY=0.5;entryDx=0;entryDy=0;" parent="1" source="gNcCsbQKsaVJ5BiIyDdV-1" target="gNcCsbQKsaVJ5BiIyDdV-14" edge="1">
          <mxGeometry width="50" height="50" relative="1" as="geometry">
            <mxPoint x="600" y="570" as="sourcePoint" />
            <mxPoint x="650" y="520" as="targetPoint" />
          </mxGeometry>
        </mxCell>
        <mxCell id="gNcCsbQKsaVJ5BiIyDdV-26" value="" style="endArrow=classic;html=1;rounded=0;entryX=0;entryY=0.5;entryDx=0;entryDy=0;" parent="1" target="gNcCsbQKsaVJ5BiIyDdV-18" edge="1">
          <mxGeometry width="50" height="50" relative="1" as="geometry">
            <mxPoint x="170" y="300" as="sourcePoint" />
            <mxPoint x="650" y="520" as="targetPoint" />
          </mxGeometry>
        </mxCell>
        <mxCell id="gNcCsbQKsaVJ5BiIyDdV-27" value="" style="endArrow=classic;html=1;rounded=0;entryX=0;entryY=0.5;entryDx=0;entryDy=0;" parent="1" target="gNcCsbQKsaVJ5BiIyDdV-19" edge="1">
          <mxGeometry width="50" height="50" relative="1" as="geometry">
            <mxPoint x="170" y="300" as="sourcePoint" />
            <mxPoint x="650" y="520" as="targetPoint" />
          </mxGeometry>
        </mxCell>
        <mxCell id="gNcCsbQKsaVJ5BiIyDdV-28" value="" style="endArrow=classic;html=1;rounded=0;entryX=0;entryY=0.5;entryDx=0;entryDy=0;" parent="1" target="gNcCsbQKsaVJ5BiIyDdV-20" edge="1">
          <mxGeometry width="50" height="50" relative="1" as="geometry">
            <mxPoint x="170" y="300" as="sourcePoint" />
            <mxPoint x="650" y="520" as="targetPoint" />
          </mxGeometry>
        </mxCell>
        <mxCell id="gNcCsbQKsaVJ5BiIyDdV-29" value="" style="endArrow=classic;html=1;rounded=0;entryX=0;entryY=0.5;entryDx=0;entryDy=0;" parent="1" target="gNcCsbQKsaVJ5BiIyDdV-21" edge="1">
          <mxGeometry width="50" height="50" relative="1" as="geometry">
            <mxPoint x="170" y="300" as="sourcePoint" />
            <mxPoint x="650" y="520" as="targetPoint" />
          </mxGeometry>
        </mxCell>
        <mxCell id="gNcCsbQKsaVJ5BiIyDdV-39" value="" style="endArrow=classic;html=1;rounded=0;exitX=1;exitY=0.3333333333333333;exitDx=0;exitDy=0;exitPerimeter=0;entryX=0;entryY=0.5;entryDx=0;entryDy=0;" parent="1" source="gNcCsbQKsaVJ5BiIyDdV-2" target="gNcCsbQKsaVJ5BiIyDdV-34" edge="1">
          <mxGeometry width="50" height="50" relative="1" as="geometry">
            <mxPoint x="810" y="1120" as="sourcePoint" />
            <mxPoint x="860" y="1070" as="targetPoint" />
          </mxGeometry>
        </mxCell>
        <mxCell id="gNcCsbQKsaVJ5BiIyDdV-40" value="" style="endArrow=classic;html=1;rounded=0;exitX=1;exitY=0.3333333333333333;exitDx=0;exitDy=0;exitPerimeter=0;entryX=0;entryY=0.5;entryDx=0;entryDy=0;" parent="1" source="gNcCsbQKsaVJ5BiIyDdV-2" target="gNcCsbQKsaVJ5BiIyDdV-37" edge="1">
          <mxGeometry width="50" height="50" relative="1" as="geometry">
            <mxPoint x="810" y="1120" as="sourcePoint" />
            <mxPoint x="860" y="1070" as="targetPoint" />
          </mxGeometry>
        </mxCell>
        <mxCell id="gNcCsbQKsaVJ5BiIyDdV-41" value="" style="endArrow=classic;html=1;rounded=0;exitX=1;exitY=0.3333333333333333;exitDx=0;exitDy=0;exitPerimeter=0;entryX=0;entryY=0.5;entryDx=0;entryDy=0;" parent="1" source="gNcCsbQKsaVJ5BiIyDdV-2" target="gNcCsbQKsaVJ5BiIyDdV-38" edge="1">
          <mxGeometry width="50" height="50" relative="1" as="geometry">
            <mxPoint x="540" y="950" as="sourcePoint" />
            <mxPoint x="590" y="900" as="targetPoint" />
          </mxGeometry>
        </mxCell>
        <mxCell id="gNcCsbQKsaVJ5BiIyDdV-51" value="" style="endArrow=classic;html=1;rounded=0;entryX=1;entryY=0.5;entryDx=0;entryDy=0;" parent="1" target="gNcCsbQKsaVJ5BiIyDdV-47" edge="1">
          <mxGeometry width="50" height="50" relative="1" as="geometry">
            <mxPoint x="940" y="290" as="sourcePoint" />
            <mxPoint x="1090" y="460" as="targetPoint" />
          </mxGeometry>
        </mxCell>
        <mxCell id="gNcCsbQKsaVJ5BiIyDdV-53" value="" style="endArrow=classic;html=1;rounded=0;entryX=1;entryY=0.5;entryDx=0;entryDy=0;exitX=0;exitY=0.3333333333333333;exitDx=0;exitDy=0;exitPerimeter=0;" parent="1" source="gNcCsbQKsaVJ5BiIyDdV-3" target="gNcCsbQKsaVJ5BiIyDdV-45" edge="1">
          <mxGeometry width="50" height="50" relative="1" as="geometry">
            <mxPoint x="1040" y="510" as="sourcePoint" />
            <mxPoint x="1090" y="460" as="targetPoint" />
          </mxGeometry>
        </mxCell>
        <mxCell id="gNcCsbQKsaVJ5BiIyDdV-54" value="" style="endArrow=classic;html=1;rounded=0;entryX=1;entryY=0.5;entryDx=0;entryDy=0;exitX=0;exitY=0.3333333333333333;exitDx=0;exitDy=0;exitPerimeter=0;" parent="1" source="gNcCsbQKsaVJ5BiIyDdV-3" target="gNcCsbQKsaVJ5BiIyDdV-44" edge="1">
          <mxGeometry width="50" height="50" relative="1" as="geometry">
            <mxPoint x="1040" y="510" as="sourcePoint" />
            <mxPoint x="1090" y="460" as="targetPoint" />
          </mxGeometry>
        </mxCell>
        <mxCell id="gNcCsbQKsaVJ5BiIyDdV-55" value="" style="endArrow=classic;html=1;rounded=0;entryX=1;entryY=0.5;entryDx=0;entryDy=0;exitX=0;exitY=0.3333333333333333;exitDx=0;exitDy=0;exitPerimeter=0;" parent="1" source="gNcCsbQKsaVJ5BiIyDdV-3" target="gNcCsbQKsaVJ5BiIyDdV-43" edge="1">
          <mxGeometry width="50" height="50" relative="1" as="geometry">
            <mxPoint x="1040" y="510" as="sourcePoint" />
            <mxPoint x="1090" y="460" as="targetPoint" />
          </mxGeometry>
        </mxCell>
        <mxCell id="gNcCsbQKsaVJ5BiIyDdV-56" value="" style="endArrow=classic;html=1;rounded=0;entryX=1;entryY=0.5;entryDx=0;entryDy=0;" parent="1" target="gNcCsbQKsaVJ5BiIyDdV-42" edge="1">
          <mxGeometry width="50" height="50" relative="1" as="geometry">
            <mxPoint x="940" y="290" as="sourcePoint" />
            <mxPoint x="900" y="50" as="targetPoint" />
          </mxGeometry>
        </mxCell>
        <mxCell id="gNcCsbQKsaVJ5BiIyDdV-61" value="" style="endArrow=classic;html=1;rounded=0;entryX=1;entryY=0.5;entryDx=0;entryDy=0;exitX=0;exitY=0.3333333333333333;exitDx=0;exitDy=0;exitPerimeter=0;" parent="1" source="gNcCsbQKsaVJ5BiIyDdV-4" target="gNcCsbQKsaVJ5BiIyDdV-57" edge="1">
          <mxGeometry width="50" height="50" relative="1" as="geometry">
            <mxPoint x="960" y="880" as="sourcePoint" />
            <mxPoint x="1010" y="830" as="targetPoint" />
          </mxGeometry>
        </mxCell>
        <mxCell id="gNcCsbQKsaVJ5BiIyDdV-62" value="" style="endArrow=classic;html=1;rounded=0;entryX=1;entryY=0.5;entryDx=0;entryDy=0;exitX=0;exitY=0.3333333333333333;exitDx=0;exitDy=0;exitPerimeter=0;" parent="1" source="gNcCsbQKsaVJ5BiIyDdV-4" target="gNcCsbQKsaVJ5BiIyDdV-58" edge="1">
          <mxGeometry width="50" height="50" relative="1" as="geometry">
            <mxPoint x="960" y="1130" as="sourcePoint" />
            <mxPoint x="1010" y="1080" as="targetPoint" />
          </mxGeometry>
        </mxCell>
        <mxCell id="gNcCsbQKsaVJ5BiIyDdV-63" value="" style="endArrow=classic;html=1;rounded=0;entryX=1;entryY=0.5;entryDx=0;entryDy=0;exitX=0;exitY=0.3333333333333333;exitDx=0;exitDy=0;exitPerimeter=0;" parent="1" source="gNcCsbQKsaVJ5BiIyDdV-4" target="gNcCsbQKsaVJ5BiIyDdV-59" edge="1">
          <mxGeometry width="50" height="50" relative="1" as="geometry">
            <mxPoint x="960" y="1130" as="sourcePoint" />
            <mxPoint x="1010" y="1080" as="targetPoint" />
          </mxGeometry>
        </mxCell>
        <mxCell id="gNcCsbQKsaVJ5BiIyDdV-64" value="" style="endArrow=classic;html=1;rounded=0;entryX=1;entryY=0.5;entryDx=0;entryDy=0;exitX=0;exitY=0.3333333333333333;exitDx=0;exitDy=0;exitPerimeter=0;" parent="1" target="gNcCsbQKsaVJ5BiIyDdV-60" edge="1" source="gNcCsbQKsaVJ5BiIyDdV-4">
          <mxGeometry width="50" height="50" relative="1" as="geometry">
            <mxPoint x="940" y="900" as="sourcePoint" />
            <mxPoint x="1010" y="1080" as="targetPoint" />
          </mxGeometry>
        </mxCell>
        <mxCell id="XzpkJVxkmOIdcj5frzw8-3" value="" style="endArrow=classic;html=1;rounded=0;entryX=1;entryY=0.5;entryDx=0;entryDy=0;exitX=0;exitY=0.3333333333333333;exitDx=0;exitDy=0;exitPerimeter=0;" edge="1" parent="1" source="gNcCsbQKsaVJ5BiIyDdV-4" target="XzpkJVxkmOIdcj5frzw8-2">
          <mxGeometry width="50" height="50" relative="1" as="geometry">
            <mxPoint x="940" y="900" as="sourcePoint" />
            <mxPoint x="520" y="600" as="targetPoint" />
          </mxGeometry>
        </mxCell>
        <mxCell id="XzpkJVxkmOIdcj5frzw8-5" value="" style="endArrow=classic;html=1;rounded=0;exitX=0;exitY=0.3333333333333333;exitDx=0;exitDy=0;exitPerimeter=0;entryX=1;entryY=0.5;entryDx=0;entryDy=0;" edge="1" parent="1" source="gNcCsbQKsaVJ5BiIyDdV-4" target="XzpkJVxkmOIdcj5frzw8-1">
          <mxGeometry width="50" height="50" relative="1" as="geometry">
            <mxPoint x="470" y="650" as="sourcePoint" />
            <mxPoint x="520" y="600" as="targetPoint" />
          </mxGeometry>
        </mxCell>
        <mxCell id="XzpkJVxkmOIdcj5frzw8-7" value="Actor" style="shape=umlActor;verticalLabelPosition=bottom;verticalAlign=top;html=1;outlineConnect=0;" vertex="1" parent="1">
          <mxGeometry x="350" y="1290" width="30" height="60" as="geometry" />
        </mxCell>
        <mxCell id="XzpkJVxkmOIdcj5frzw8-9" value="" style="rounded=0;whiteSpace=wrap;html=1;" vertex="1" parent="1">
          <mxGeometry x="309" y="1441" width="120" height="60" as="geometry" />
        </mxCell>
        <mxCell id="XzpkJVxkmOIdcj5frzw8-10" value="" style="shape=document;whiteSpace=wrap;html=1;boundedLbl=1;" vertex="1" parent="1">
          <mxGeometry x="480" y="1437" width="120" height="80" as="geometry" />
        </mxCell>
        <mxCell id="XzpkJVxkmOIdcj5frzw8-11" value="" style="rhombus;whiteSpace=wrap;html=1;" vertex="1" parent="1">
          <mxGeometry x="325" y="1562" width="80" height="80" as="geometry" />
        </mxCell>
        <mxCell id="XzpkJVxkmOIdcj5frzw8-12" value="" style="rounded=1;whiteSpace=wrap;html=1;" vertex="1" parent="1">
          <mxGeometry x="483" y="1576" width="120" height="60" as="geometry" />
        </mxCell>
        <mxCell id="XzpkJVxkmOIdcj5frzw8-13" value="" style="endArrow=classic;html=1;rounded=0;" edge="1" parent="1">
          <mxGeometry width="50" height="50" relative="1" as="geometry">
            <mxPoint x="494" y="1354" as="sourcePoint" />
            <mxPoint x="592" y="1354" as="targetPoint" />
          </mxGeometry>
        </mxCell>
      </root>
    </mxGraphModel>
  </diagram>
</mxfile>
